<?xml version="1.0" encoding="UTF-8" standalone="no"?>
<!DOCTYPE svg PUBLIC "-//W3C//DTD SVG 1.1//EN" "http://www.w3.org/Graphics/SVG/1.1/DTD/svg11.dtd">
<svg width="100%" height="100%" viewBox="0 0 800 800" version="1.1" xmlns="http://www.w3.org/2000/svg" xmlns:xlink="http://www.w3.org/1999/xlink" xml:space="preserve" xmlns:serif="http://www.serif.com/" style="fill-rule:evenodd;clip-rule:evenodd;stroke-linejoin:round;stroke-miterlimit:2;">
    <g transform="matrix(29.9895,0,0,29.9895,0,0)">
        <path d="M26.105,21.891C25.876,21.891 25.666,21.76 25.576,21.545C25.51,21.389 23.86,17.688 17.691,16.955C16.406,16.799 14.867,16.719 12.998,16.705L12.998,21.318C12.998,21.531 12.883,21.724 12.694,21.826C12.506,21.924 12.281,21.91 12.106,21.793L0.254,13.815C0.094,13.708 0,13.528 0,13.339C0,13.148 0.094,12.974 0.254,12.862L12.111,4.883C12.286,4.762 12.509,4.754 12.699,4.854C12.889,4.956 13.002,5.149 13.002,5.356L13.002,9.649C15.58,9.985 26.676,11.979 26.676,21.323C26.676,21.594 26.485,21.831 26.217,21.885C26.18,21.891 26.141,21.891 26.105,21.891Z" style="fill:white;fill-rule:nonzero;"/>
    </g>
</svg>
