<?xml version="1.0" encoding="UTF-8" standalone="no"?>
<!DOCTYPE svg PUBLIC "-//W3C//DTD SVG 1.1//EN" "http://www.w3.org/Graphics/SVG/1.1/DTD/svg11.dtd">
<svg width="100%" height="100%" viewBox="0 0 384 512" version="1.1" xmlns="http://www.w3.org/2000/svg" xmlns:xlink="http://www.w3.org/1999/xlink" xml:space="preserve" xmlns:serif="http://www.serif.com/" style="fill-rule:evenodd;clip-rule:evenodd;stroke-linejoin:round;stroke-miterlimit:2;">
    <path d="M64,0C28.7,0 0,28.7 0,64L0,448C0,483.3 28.7,512 64,512L320,512C355.3,512 384,483.3 384,448L384,160L256,160C238.3,160 224,145.7 224,128L224,0L64,0ZM256,0L256,128L384,128L256,0ZM216,232L216,334.1L247,303.1C256.4,293.7 271.6,293.7 280.9,303.1C290.2,312.5 290.3,327.7 280.9,337L208.9,409C199.5,418.4 184.3,418.4 175,409L103,337C93.6,327.6 93.6,312.4 103,303.1C112.4,293.8 127.6,293.7 136.9,303.1L167.9,334.1L168,232C168,218.7 178.7,208 192,208C205.3,208 216,218.7 216,232Z" style="fill:white;fill-rule:nonzero;"/>
</svg>
